#N canvas 252 159 982 614 12;
#X declare -path ../jwy-bibliothek;
#X obj 14 18 declare -path ../jwy-bibliothek;
#X obj 37 460 volume;
#X obj 37 510 dac~ 1 2, f 16;
#N canvas 99 108 1081 674 pad 0;
#X obj 24 89 r pad-notes;
#X obj 77 113 r pad-mess;
#X obj 24 219 side-chain-2, f 28;
#X obj 24 256 volume;
#X text 245 18 route filter wave trans hip lop boost loadbang;
#X msg 75 393 filter \$1;
#X obj 75 418 s pad-mess;
#X obj 80 342 hsl 128 15 0 127 0 0 empty empty empty -2 -8 0 10 -262144
-1 -1 6000 1;
#X obj 77 362 / 127;
#X obj 222 457 s pad-mess;
#X obj 225 342 hsl 128 15 0 127 0 0 empty empty empty -2 -8 0 10 -262144
-1 -1 4700 1;
#X obj 222 362 / 127;
#X msg 222 432 wave \$1;
#X obj 222 385 * 12;
#X obj 222 408 i;
#X obj 224 129 hsl 128 15 0 127 0 0 empty empty empty -2 -8 0 10 -262144
-1 -1 8900 1;
#X obj 217 150 / 127;
#X msg 217 180 amount \$1;
#X obj 24 286 s~ pad-outL;
#X obj 144 286 s~ pad-outR;
#X obj 393 479 s pad-mess;
#X obj 396 344 hsl 128 15 0 127 0 0 empty empty empty -2 -8 0 10 -262144
-1 -1 1800 1;
#X obj 393 364 / 127;
#X obj 393 410 i;
#X obj 393 387 * 48;
#X obj 393 433 - 24;
#X obj 71 638 s pad-mess;
#X obj 74 563 hsl 128 15 0 127 0 0 empty empty empty -2 -8 0 10 -262144
-1 -1 3400 1;
#X obj 71 583 / 127;
#X msg 71 613 hip \$1;
#X obj 213 638 s pad-mess;
#X obj 216 563 hsl 128 15 0 127 0 0 empty empty empty -2 -8 0 10 -262144
-1 -1 8300 1;
#X obj 213 583 / 127;
#X msg 213 612 lop \$1;
#X obj 401 638 s pad-mess;
#X obj 404 563 hsl 128 15 0 127 0 0 empty empty empty -2 -8 0 10 -262144
-1 -1 5700 1;
#X obj 401 583 / 127;
#X msg 401 612 boost \$1;
#X obj 587 567 r pad-loadbang;
#X obj 587 590 t b;
#X msg 587 613 loadbang bang;
#X obj 587 636 s pad-mess;
#X obj 624 592 bng 15 250 50 0 empty empty empty 17 7 0 10 -262144
-1 -1;
#N canvas 265 174 816 617 sequence 0;
#X msg 322 128 openTxt;
#X msg 221 181 read \$1;
#X msg 394 180 write \$1;
#X obj 56 374 outlet;
#X obj 58 118 r global-ticks;
#X obj 230 93 bng 15 250 50 0 empty empty empty 17 7 0 10 -262144 -1
-1;
#X floatatom 250 91 5 0 0 0 - - -;
#X obj 230 113 f;
#X obj 180 51 inlet switch;
#X obj 184 146 tgl 15 0 empty empty empty 17 7 0 10 -262144 -1 -1 0
1;
#X obj 440 101 bng 15 250 50 0 empty empty empty 17 7 0 10 -262144
-1 -1;
#X floatatom 460 99 5 0 0 0 - - -;
#X obj 440 121 f;
#X obj 58 268 unpack 0 0 0;
#X obj 58 291 makenote, f 12;
#X obj 58 314 pack 0 0;
#X obj 58 215 count-ticks 360 4;
#X obj 58 245 seqq-rev2 360 ../PERFORMANCE-2/pad-seqs 3;
#X msg 421 220 save;
#X connect 0 0 17 1;
#X connect 1 0 17 1;
#X connect 2 0 17 1;
#X connect 4 0 16 0;
#X connect 5 0 7 0;
#X connect 6 0 7 1;
#X connect 7 0 1 0;
#X connect 8 0 9 0;
#X connect 9 0 16 3;
#X connect 10 0 12 0;
#X connect 11 0 12 1;
#X connect 12 0 2 0;
#X connect 13 0 14 0;
#X connect 13 1 14 1;
#X connect 13 2 14 2;
#X connect 14 0 15 0;
#X connect 14 1 15 1;
#X connect 15 0 3 0;
#X connect 16 0 17 0;
#X connect 17 0 13 0;
#X connect 18 0 17 1;
#X restore 498 141 pd sequence;
#X obj 510 102 tgl 15 0 empty empty empty 17 7 0 10 -262144 -1 -1 0
1;
#X obj 498 164 s pad-notes;
#X msg 392 454 trans \$1;
#X obj 24 137 add/main 1 24 4, f 8;
#X obj 566 215 vsl 15 128 0 127 0 0 empty empty empty 0 -9 0 10 -262144
-1 -1 800 1;
#X obj 581 355 / 127;
#X obj 581 378 * 300;
#X msg 581 401 att \$1;
#X obj 581 424 s pad-mess;
#X obj 663 199 vsl 15 128 0 127 0 0 empty empty empty 0 -9 0 10 -262144
-1 -1 3400 1;
#X obj 663 356 / 127;
#X obj 663 379 * 300;
#X obj 663 425 s pad-mess;
#X msg 663 402 dec \$1;
#X obj 747 218 vsl 15 128 0 127 0 0 empty empty empty 0 -9 0 10 -262144
-1 -1 5800 1;
#X obj 747 354 / 127;
#X obj 747 423 s pad-mess;
#X obj 829 219 vsl 15 128 0 127 0 0 empty empty empty 0 -9 0 10 -262144
-1 -1 10300 1;
#X obj 829 355 / 127;
#X obj 829 424 s pad-mess;
#X obj 747 377 * 100;
#X msg 747 400 sus \$1;
#X obj 829 378 * 4000;
#X msg 829 401 rel \$1;
#X floatatom 281 386 5 0 0 0 - - -;
#X obj 133 63 r~ drums-outL;
#X obj 173 95 r~ drums-outR;
#X obj 724 67 *~ 0.5;
#X obj 724 90 +~ 0.5;
#X obj 724 113 *~, f 11;
#X obj 786 48 hsl 128 15 0 127 0 0 empty empty empty -2 -8 0 10 -262144
-1 -1 2100 1;
#X obj 783 68 / 127;
#X obj 724 136 +~;
#X obj 825 96 hsl 128 15 0 127 0 0 empty empty empty -2 -8 0 10 -262144
-1 -1 0 1;
#X obj 822 116 / 127;
#X obj 873 171 snapshot~;
#X obj 898 121 tgl 15 0 empty empty empty 17 7 0 10 -262144 -1 -1 1
1;
#X obj 899 145 metro 20;
#X obj 724 44 osc~ 3;
#X connect 0 0 47 0;
#X connect 1 0 47 1;
#X connect 2 0 3 0;
#X connect 2 1 3 1;
#X connect 3 0 18 0;
#X connect 3 1 19 0;
#X connect 5 0 6 0;
#X connect 7 0 8 0;
#X connect 8 0 5 0;
#X connect 10 0 11 0;
#X connect 11 0 13 0;
#X connect 12 0 9 0;
#X connect 13 0 14 0;
#X connect 14 0 12 0;
#X connect 14 0 68 0;
#X connect 15 0 16 0;
#X connect 16 0 17 0;
#X connect 17 0 2 4;
#X connect 21 0 22 0;
#X connect 22 0 24 0;
#X connect 23 0 25 0;
#X connect 24 0 23 0;
#X connect 25 0 46 0;
#X connect 27 0 28 0;
#X connect 28 0 29 0;
#X connect 29 0 26 0;
#X connect 31 0 32 0;
#X connect 32 0 33 0;
#X connect 33 0 30 0;
#X connect 35 0 36 0;
#X connect 36 0 37 0;
#X connect 37 0 34 0;
#X connect 38 0 39 0;
#X connect 39 0 40 0;
#X connect 40 0 41 0;
#X connect 42 0 39 0;
#X connect 43 0 45 0;
#X connect 44 0 43 0;
#X connect 46 0 20 0;
#X connect 47 0 2 0;
#X connect 47 1 2 1;
#X connect 48 0 49 0;
#X connect 49 0 50 0;
#X connect 50 0 51 0;
#X connect 51 0 52 0;
#X connect 53 0 54 0;
#X connect 54 0 55 0;
#X connect 55 0 57 0;
#X connect 57 0 56 0;
#X connect 58 0 59 0;
#X connect 59 0 64 0;
#X connect 61 0 62 0;
#X connect 62 0 66 0;
#X connect 64 0 65 0;
#X connect 65 0 60 0;
#X connect 66 0 67 0;
#X connect 67 0 63 0;
#X connect 69 0 2 2;
#X connect 70 0 2 3;
#X connect 71 0 72 0;
#X connect 72 0 73 0;
#X connect 73 0 76 0;
#X connect 74 0 75 0;
#X connect 75 0 73 1;
#X connect 76 0 79 0;
#X connect 77 0 78 0;
#X connect 78 0 76 1;
#X connect 79 0 5 0;
#X connect 80 0 81 0;
#X connect 81 0 79 0;
#X connect 82 0 71 0;
#X restore 48 193 pd pad synth;
#N canvas 154 203 1110 675 drums 0;
#N canvas 187 165 816 617 sequence 0;
#X obj 58 215 count-ticks 360 4;
#X msg 322 128 openTxt;
#X msg 221 181 read \$1;
#X msg 394 180 write \$1;
#X obj 56 374 outlet;
#X obj 58 118 r global-ticks;
#X obj 230 93 bng 15 250 50 0 empty empty empty 17 7 0 10 -262144 -1
-1;
#X floatatom 250 91 5 0 0 0 - - -;
#X obj 230 113 f;
#X obj 180 51 inlet switch;
#X obj 184 146 tgl 15 0 empty empty empty 17 7 0 10 -262144 -1 -1 0
1;
#X obj 440 101 bng 15 250 50 0 empty empty empty 17 7 0 10 -262144
-1 -1;
#X floatatom 460 99 5 0 0 0 - - -;
#X obj 440 121 f;
#X obj 58 245 seqq 360 ../PERFORMANCE-2/drums-seqs 2;
#X connect 0 0 14 0;
#X connect 1 0 14 1;
#X connect 2 0 14 1;
#X connect 3 0 14 1;
#X connect 5 0 0 0;
#X connect 6 0 8 0;
#X connect 7 0 8 1;
#X connect 8 0 2 0;
#X connect 9 0 10 0;
#X connect 10 0 0 3;
#X connect 11 0 13 0;
#X connect 12 0 13 1;
#X connect 13 0 3 0;
#X connect 14 0 4 0;
#X restore 498 141 pd sequence;
#X obj 500 115 tgl 15 0 empty empty empty 17 7 0 10 -262144 -1 -1 1
1;
#X obj 59 265 drum-bank;
#X obj 59 347 side-chain-2, f 28;
#X obj 59 384 volume;
#X obj 255 258 hsl 128 15 0 127 0 0 empty empty empty -2 -8 0 10 -262144
-1 -1 0 1;
#X obj 252 278 / 127;
#X msg 252 308 amount \$1;
#X obj 70 451 s~ drums-outL;
#X obj 245 428 s~ drums-outR;
#X obj 498 164 s drums-notes;
#X obj 59 231 r drums-notes;
#X obj 157 227 r~ pad-outL;
#X obj 256 137 r~ pad-outR;
#X connect 0 0 10 0;
#X connect 1 0 0 0;
#X connect 2 0 3 0;
#X connect 2 0 3 1;
#X connect 3 0 4 0;
#X connect 3 1 4 1;
#X connect 4 0 8 0;
#X connect 4 1 9 0;
#X connect 5 0 6 0;
#X connect 6 0 7 0;
#X connect 7 0 3 4;
#X connect 11 0 2 0;
#X restore 297 196 pd drums;
#N canvas 0 23 450 300 bassline 0;
#X restore 533 195 pd bassline;
#N canvas 0 23 450 300 main-metro 0;
#X obj 186 227 s global-ticks;
#X obj 237 136 r global-reset;
#X obj 237 159 t b;
#X obj 186 37 r global-switch;
#X obj 292 81 r global-bpm;
#X obj 128 107 tgl 15 0 empty empty empty 17 7 0 10 -262144 -1 -1 1
1;
#X obj 186 204 master-ticks 360;
#X msg 372 190 100;
#X msg 359 158 120;
#X connect 1 0 2 0;
#X connect 2 0 6 1;
#X connect 3 0 6 0;
#X connect 4 0 6 2;
#X connect 5 0 6 0;
#X connect 6 0 0 0;
#X connect 7 0 6 2;
#X connect 8 0 6 2;
#X restore 269 18 pd main-metro;
#N canvas 377 250 450 300 loadbang-order 0;
#X obj 61 43 loadbang;
#X obj 61 66 t b b b b;
#X connect 0 0 1 0;
#X restore 482 23 pd loadbang-order;
#X obj 37 413 r~ pad-outL;
#X obj 133 414 r~ pad-outR;
#X obj 59 369 r~ drums-outL;
#X obj 187 392 r~ drums-outR;
#X connect 1 0 2 0;
#X connect 1 1 2 1;
#X connect 8 0 1 0;
#X connect 9 0 1 1;
#X connect 10 0 1 0;
#X connect 11 0 1 1;
