#N canvas 292 96 982 614 12;
#X declare -path ../jwy-bibliothek;
#X obj 14 18 declare -path ../jwy-bibliothek;
#X obj 37 460 volume;
#X obj 37 510 dac~ 1 2, f 16;
#N canvas 359 23 1081 674 pad 0;
#X obj 24 89 r pad-notes;
#X obj 77 113 r pad-mess;
#X obj 24 256 volume;
#X text 245 18 route filter wave trans hip lop boost loadbang;
#X msg 44 450 filter \$1;
#X obj 44 475 s pad-mess;
#X obj 47 370 hsl 128 15 0 127 0 0 empty empty empty -2 -8 0 10 -262144
-1 -1 2900 1;
#X obj 44 390 / 127;
#X obj 222 517 s pad-mess;
#X obj 225 342 hsl 128 15 0 127 0 0 empty empty empty -2 -8 0 10 -262144
-1 -1 5800 1;
#X obj 222 362 / 127;
#X msg 222 492 wave \$1;
#X obj 222 445 * 12;
#X obj 222 468 i;
#X obj 284 41 hsl 128 15 0 127 0 0 empty empty empty -2 -8 0 10 -262144
-1 -1 12700 1;
#X obj 298 88 / 127;
#X obj 393 479 s pad-mess;
#X obj 396 294 hsl 128 15 0 127 0 0 empty empty empty -2 -8 0 10 -262144
-1 -1 2300 1;
#X obj 393 314 / 127;
#X obj 393 410 i;
#X obj 393 387 * 48;
#X obj 393 433 - 24;
#X obj 71 668 s pad-mess;
#X obj 76 550 hsl 128 15 0 127 0 0 empty empty empty -2 -8 0 10 -262144
-1 -1 3700 1;
#X obj 71 583 / 127;
#X msg 71 643 hip \$1;
#X obj 213 668 s pad-mess;
#X obj 216 563 hsl 128 15 0 127 0 0 empty empty empty -2 -8 0 10 -262144
-1 -1 0 1;
#X obj 213 583 / 127;
#X msg 213 642 lop \$1;
#X obj 401 668 s pad-mess;
#X obj 404 563 hsl 128 15 0 127 0 0 empty empty empty -2 -8 0 10 -262144
-1 -1 12700 1;
#X obj 401 583 / 127;
#X msg 401 642 boost \$1;
#X obj 587 567 r pad-loadbang;
#X obj 587 590 t b;
#X msg 587 613 loadbang bang;
#X obj 587 636 s pad-mess;
#X obj 624 592 bng 15 250 50 0 empty empty empty 17 7 0 10 -262144
-1 -1;
#N canvas 265 174 816 617 sequence 0;
#X msg 322 128 openTxt;
#X msg 221 181 read \$1;
#X msg 394 180 write \$1;
#X obj 56 374 outlet;
#X obj 58 118 r global-ticks;
#X obj 230 93 bng 15 250 50 0 empty empty empty 17 7 0 10 -262144 -1
-1;
#X floatatom 250 91 5 0 0 0 - - -;
#X obj 230 113 f;
#X obj 180 51 inlet switch;
#X obj 184 146 tgl 15 0 empty empty empty 17 7 0 10 -262144 -1 -1 0
1;
#X obj 440 101 bng 15 250 50 0 empty empty empty 17 7 0 10 -262144
-1 -1;
#X floatatom 460 99 5 0 0 0 - - -;
#X obj 440 121 f;
#X obj 58 268 unpack 0 0 0;
#X obj 58 291 makenote, f 12;
#X obj 58 314 pack 0 0;
#X obj 58 245 seqq-rev2 360 ../PERFORMANCE-2/pad-seqs 3;
#X msg 421 220 save;
#X msg 475 239 load;
#X obj 58 215 count-ticks 360 7;
#X obj 526 45 inlet;
#X obj 500 201 r add-seq-preset-load;
#X obj 485 169 r save!;
#X connect 0 0 16 1;
#X connect 1 0 16 1;
#X connect 2 0 16 1;
#X connect 4 0 19 0;
#X connect 5 0 7 0;
#X connect 6 0 7 1;
#X connect 7 0 1 0;
#X connect 8 0 9 0;
#X connect 9 0 19 3;
#X connect 10 0 12 0;
#X connect 11 0 12 1;
#X connect 12 0 2 0;
#X connect 13 0 14 0;
#X connect 13 1 14 1;
#X connect 13 2 14 2;
#X connect 14 0 15 0;
#X connect 14 1 15 1;
#X connect 15 0 3 0;
#X connect 16 0 13 0;
#X connect 17 0 16 1;
#X connect 18 0 16 1;
#X connect 19 0 16 0;
#X connect 20 0 1 0;
#X connect 21 0 18 0;
#X connect 22 0 17 0;
#X restore 498 141 pd sequence;
#X obj 510 102 tgl 15 0 empty empty empty 17 7 0 10 -262144 -1 -1 0
1;
#X obj 498 164 s pad-notes;
#X msg 392 454 trans \$1;
#X obj 24 137 add/main 1 24 4, f 8;
#X obj 566 195 vsl 15 128 0 127 0 0 empty empty empty 0 -9 0 10 -262144
-1 -1 0 1;
#X obj 581 335 / 127;
#X obj 581 418 * 300;
#X msg 581 441 att \$1;
#X obj 581 464 s pad-mess;
#X obj 663 179 vsl 15 128 0 127 0 0 empty empty empty 0 -9 0 10 -262144
-1 -1 9500 1;
#X obj 663 336 / 127;
#X obj 663 419 * 300;
#X obj 663 465 s pad-mess;
#X msg 663 442 dec \$1;
#X obj 747 198 vsl 15 128 0 127 0 0 empty empty empty 0 -9 0 10 -262144
-1 -1 6700 1;
#X obj 747 334 / 127;
#X obj 747 463 s pad-mess;
#X obj 829 199 vsl 15 128 0 127 0 0 empty empty empty 0 -9 0 10 -262144
-1 -1 12700 1;
#X obj 829 335 / 127;
#X obj 829 464 s pad-mess;
#X obj 747 417 * 100;
#X msg 747 440 sus \$1;
#X obj 829 418 * 4000;
#X msg 829 441 rel \$1;
#N canvas 0 23 564 628 filter-LFO 0;
#X obj 89 321 *~ 0.5;
#X obj 89 344 +~ 0.5;
#X obj 151 302 hsl 128 15 0 127 0 0 empty empty empty -2 -8 0 10 -262144
-1 -1 9000 1;
#X obj 148 322 / 127;
#X obj 190 350 hsl 128 15 0 127 0 0 empty empty empty -2 -8 0 10 -262144
-1 -1 0 1;
#X obj 187 370 / 127;
#X obj 238 425 snapshot~;
#X obj 263 375 tgl 15 0 empty empty empty 17 7 0 10 -262144 -1 -1 0
1;
#X obj 264 399 metro 20;
#X msg 244 450 filter \$1;
#X obj 244 475 s pad-mess;
#X obj 79 67 *~ 0.5;
#X obj 79 90 +~ 0.5;
#X obj 79 113 *~ 4;
#X obj 79 136 +~ 0.25;
#X obj 416 477 switch~;
#X obj 278 42 inlet;
#X obj 89 367 *~ 0.4, f 11;
#X obj 89 390 +~ 0.1;
#X obj 189 184 bng 15 250 50 0 empty empty empty 17 7 0 10 -262144
-1 -1;
#X msg 189 204 0;
#X obj 79 44 osc~ 1;
#X obj 128 212 osc~ 3;
#X connect 0 0 1 0;
#X connect 1 0 17 0;
#X connect 2 0 3 0;
#X connect 3 0 17 1;
#X connect 4 0 5 0;
#X connect 5 0 18 1;
#X connect 6 0 9 0;
#X connect 7 0 8 0;
#X connect 8 0 6 0;
#X connect 9 0 10 0;
#X connect 11 0 12 0;
#X connect 12 0 13 0;
#X connect 13 0 14 0;
#X connect 14 0 22 0;
#X connect 16 0 8 0;
#X connect 16 0 15 0;
#X connect 17 0 18 0;
#X connect 18 0 6 0;
#X connect 19 0 20 0;
#X connect 20 0 22 1;
#X connect 21 0 11 0;
#X connect 22 0 0 0;
#X restore 925 276 pd filter-LFO;
#X obj 925 244 tgl 15 0 empty empty empty 17 7 0 10 -262144 -1 -1 0
1;
#X obj 756 602 s pad-mess;
#X msg 756 576 sync \$1;
#X obj 770 521 tgl 15 0 empty empty empty 17 7 0 10 -262144 -1 -1 1
1;
#X obj 845 600 s pad-mess;
#X msg 845 574 port \$1;
#X floatatom 855 488 5 0 0 0 - - -;
#X obj 255 219 rev2~ 89 78 3000 20;
#X obj 24 219 side-chain-env-2, f 28;
#X msg 217 180 amt-l \$1;
#X obj 348 77 hsl 128 15 0 127 0 0 empty empty empty -2 -8 0 10 -262144
-1 -1 12700 1;
#X obj 345 99 / 127;
#X msg 286 179 amt-r \$1;
#X obj 152 14 r cC-kick;
#X obj 152 145 vline~;
#X obj 152 168 pow~ 2;
#X obj 311 241 *~ 0.4;
#X obj 152 37 / 127;
#X obj 152 60 sqrt;
#X obj 24 286 throw~ main-outL;
#X obj 458 54 inlet;
#X obj 41 414 jwy-preset aDdd 0;
#X obj 221 389 jwy-preset aDdd 1;
#X msg 635 62 load;
#X msg 684 62 save;
#X msg 820 78 recall \$1;
#X msg 744 79 store \$1;
#X floatatom 820 52 5 0 0 0 - - -;
#X floatatom 744 53 5 0 0 0 - - -;
#X obj 635 118 jwy-preset-main aDdd ../Performance-2/addPres.txt;
#X obj 391 356 jwy-preset aDdd 2;
#X obj 67 609 jwy-preset aDdd 3;
#X obj 207 609 jwy-preset aDdd 4;
#X obj 407 609 jwy-preset aDdd 5;
#X obj 712 546 jwy-preset aDdd 6;
#X obj 847 545 jwy-preset aDdd 7;
#X obj 578 373 jwy-preset aDdd 8;
#X obj 660 398 jwy-preset aDdd 9;
#X obj 744 377 jwy-preset aDdd 10;
#X obj 827 392 jwy-preset aDdd 11;
#X obj 217 133 jwy-preset aDdd 12;
#X obj 286 156 jwy-preset aDdd 13;
#X floatatom 603 296 5 0 0 0 - - -;
#X obj 144 286 throw~ main-outR;
#X floatatom 144 464 5 0 0 0 - - -;
#X floatatom 527 412 5 0 0 0 - - -;
#X obj 540 54 inlet;
#X obj 635 4 r add-preset-load;
#X obj 669 36 r save!;
#X msg 152 81 \$1 20 \, 0 300 120;
#X msg 824 25 6;
#X obj 255 242 *~ 0.4;
#X obj 587 27 inlet vol;
#X connect 0 0 43 0;
#X connect 1 0 43 1;
#X connect 2 0 84 0;
#X connect 2 1 108 0;
#X connect 4 0 5 0;
#X connect 6 0 7 0;
#X connect 7 0 86 0;
#X connect 9 0 10 0;
#X connect 10 0 87 0;
#X connect 11 0 8 0;
#X connect 12 0 13 0;
#X connect 13 0 11 0;
#X connect 14 0 15 0;
#X connect 15 0 105 0;
#X connect 17 0 18 0;
#X connect 18 0 95 0;
#X connect 19 0 21 0;
#X connect 20 0 19 0;
#X connect 21 0 42 0;
#X connect 23 0 24 0;
#X connect 24 0 96 0;
#X connect 25 0 22 0;
#X connect 27 0 28 0;
#X connect 28 0 97 0;
#X connect 29 0 26 0;
#X connect 31 0 32 0;
#X connect 32 0 98 0;
#X connect 33 0 30 0;
#X connect 34 0 35 0;
#X connect 35 0 36 0;
#X connect 36 0 37 0;
#X connect 38 0 35 0;
#X connect 39 0 41 0;
#X connect 40 0 39 0;
#X connect 42 0 16 0;
#X connect 43 0 73 0;
#X connect 43 1 73 1;
#X connect 44 0 45 0;
#X connect 45 0 101 0;
#X connect 46 0 47 0;
#X connect 47 0 48 0;
#X connect 49 0 50 0;
#X connect 50 0 102 0;
#X connect 51 0 53 0;
#X connect 53 0 52 0;
#X connect 54 0 55 0;
#X connect 55 0 103 0;
#X connect 57 0 58 0;
#X connect 58 0 104 0;
#X connect 60 0 61 0;
#X connect 61 0 56 0;
#X connect 62 0 63 0;
#X connect 63 0 59 0;
#X connect 65 0 64 0;
#X connect 67 0 66 0;
#X connect 68 0 99 0;
#X connect 70 0 69 0;
#X connect 71 0 100 0;
#X connect 72 0 116 0;
#X connect 72 1 81 0;
#X connect 73 0 2 0;
#X connect 73 0 72 0;
#X connect 73 1 2 1;
#X connect 74 0 73 3;
#X connect 75 0 76 0;
#X connect 76 0 106 0;
#X connect 77 0 73 3;
#X connect 78 0 82 0;
#X connect 79 0 80 0;
#X connect 80 0 73 2;
#X connect 81 0 2 1;
#X connect 82 0 83 0;
#X connect 83 0 114 0;
#X connect 85 0 39 0;
#X connect 86 0 4 0;
#X connect 86 0 109 0;
#X connect 87 0 12 0;
#X connect 88 0 94 0;
#X connect 89 0 94 0;
#X connect 90 0 94 0;
#X connect 91 0 94 0;
#X connect 92 0 90 0;
#X connect 93 0 91 0;
#X connect 95 0 20 0;
#X connect 96 0 25 0;
#X connect 97 0 29 0;
#X connect 98 0 33 0;
#X connect 99 0 67 0;
#X connect 100 0 70 0;
#X connect 101 0 46 0;
#X connect 101 0 110 0;
#X connect 102 0 51 0;
#X connect 102 0 107 0;
#X connect 103 0 60 0;
#X connect 104 0 62 0;
#X connect 105 0 74 0;
#X connect 106 0 77 0;
#X connect 111 0 39 1;
#X connect 112 0 88 0;
#X connect 112 0 115 0;
#X connect 113 0 89 0;
#X connect 114 0 79 0;
#X connect 115 0 92 0;
#X connect 116 0 2 0;
#X connect 117 0 2 2;
#X restore 48 193 pd pad synth;
#N canvas 337 203 1103 675 drums 0;
#N canvas 187 165 816 617 sequence 0;
#X msg 322 128 openTxt;
#X msg 221 181 read \$1;
#X msg 394 180 write \$1;
#X obj 56 374 outlet;
#X obj 58 118 r global-ticks;
#X obj 230 93 bng 15 250 50 0 empty empty empty 17 7 0 10 -262144 -1
-1;
#X floatatom 250 91 5 0 0 0 - - -;
#X obj 230 113 f;
#X obj 180 51 inlet switch;
#X obj 184 146 tgl 15 0 empty empty empty 17 7 0 10 -262144 -1 -1 0
1;
#X obj 440 101 bng 15 250 50 0 empty empty empty 17 7 0 10 -262144
-1 -1;
#X floatatom 460 99 5 0 0 0 - - -;
#X obj 440 121 f;
#X obj 58 245 seqq-rev2 360 ../PERFORMANCE-2/drums-seqs 2;
#X msg 414 222 save;
#X msg 412 242 load;
#X obj 407 31 inlet;
#X obj 58 215 count-ticks 360 4;
#X obj 473 196 r save!;
#X connect 0 0 13 1;
#X connect 1 0 13 1;
#X connect 2 0 13 1;
#X connect 4 0 17 0;
#X connect 5 0 7 0;
#X connect 6 0 7 1;
#X connect 7 0 1 0;
#X connect 8 0 9 0;
#X connect 9 0 17 3;
#X connect 10 0 12 0;
#X connect 11 0 12 1;
#X connect 12 0 2 0;
#X connect 13 0 3 0;
#X connect 14 0 13 1;
#X connect 15 0 13 1;
#X connect 16 0 1 0;
#X connect 17 0 13 0;
#X connect 18 0 14 0;
#X restore 498 141 pd sequence;
#X obj 500 115 tgl 15 0 empty empty empty 17 7 0 10 -262144 -1 -1 0
1;
#X obj 59 265 drum-bank;
#X obj 59 347 side-chain-2, f 28;
#X obj 58 384 volume;
#X obj 255 258 hsl 128 15 0 127 0 0 empty empty empty -2 -8 0 10 -262144
-1 -1 0 1;
#X obj 252 278 / 127;
#X msg 252 308 amount \$1;
#X obj 498 164 s drums-notes;
#X obj 59 121 r drums-notes;
#X obj 149 237 s cC-kick;
#X obj 74 441 throw~ main-outL;
#X obj 207 438 throw~ main-outR;
#X obj 487 46 inlet;
#X obj 558 52 inlet;
#X obj 149 177 route 10 1;
#X obj 712 88 inlet;
#X connect 0 0 8 0;
#X connect 1 0 0 0;
#X connect 2 0 3 0;
#X connect 2 0 3 1;
#X connect 3 0 4 0;
#X connect 3 1 4 1;
#X connect 4 0 11 0;
#X connect 4 1 12 0;
#X connect 5 0 6 0;
#X connect 6 0 7 0;
#X connect 7 0 3 4;
#X connect 9 0 2 0;
#X connect 9 0 15 0;
#X connect 13 0 0 0;
#X connect 14 0 0 1;
#X connect 15 0 10 0;
#X connect 15 1 10 0;
#X connect 16 0 4 2;
#X restore 297 196 pd drums;
#N canvas 0 23 450 300 bassline 0;
#X restore 533 195 pd bassline;
#N canvas 0 23 450 300 main-metro 0;
#X obj 186 227 s global-ticks;
#X obj 237 136 r global-reset;
#X obj 237 159 t b;
#X obj 186 37 r global-switch;
#X obj 292 81 r global-bpm;
#X obj 128 107 tgl 15 0 empty empty empty 17 7 0 10 -262144 -1 -1 0
1;
#X obj 186 204 master-ticks 360;
#X msg 372 190 100;
#X msg 359 158 120;
#X connect 1 0 2 0;
#X connect 2 0 6 1;
#X connect 3 0 6 0;
#X connect 4 0 6 2;
#X connect 5 0 6 0;
#X connect 6 0 0 0;
#X connect 7 0 6 2;
#X connect 8 0 6 2;
#X restore 269 18 pd main-metro;
#N canvas 377 250 450 300 loadbang-order 0;
#X obj 61 43 loadbang;
#X obj 66 73 t b b b b;
#X obj 130 185 s add-seq-preset-load;
#X obj 103 219 s pad-loadbang;
#X obj 190 147 s add-preset-load;
#X connect 0 0 1 0;
#X connect 1 1 3 0;
#X connect 1 2 2 0;
#X connect 1 3 4 0;
#X restore 482 23 pd loadbang-order;
#X obj 457 313 s global-switch;
#X obj 457 283 tgl 15 0 empty empty empty 17 7 0 10 -262144 -1 -1 1
1;
#X obj 579 315 s global-bpm;
#X floatatom 580 289 5 0 0 0 - - -;
#X obj 37 413 catch~ main-outL;
#X obj 163 413 catch~ main-outR;
#X obj 47 160 tgl 15 0 empty empty empty 17 7 0 10 -262144 -1 -1 0
1;
#X obj 298 165 tgl 15 0 empty empty empty 17 7 0 10 -262144 -1 -1 0
1;
#X floatatom 348 160 5 0 0 0 - - -;
#X floatatom 88 136 5 0 0 0 - - -;
#X obj 399 100 vsl 15 128 0 127 0 0 empty empty empty 0 -9 0 10 -262144
-1 -1 10500 1;
#X obj 677 126 s save!;
#X obj 677 99 bng 15 250 50 0 empty empty empty 17 7 0 10 -262144 -1
-1;
#X obj 197 83 vsl 15 128 0 127 0 0 empty empty empty 0 -9 0 10 -262144
-1 -1 9700 1;
#X connect 1 0 2 0;
#X connect 1 1 2 1;
#X connect 9 0 8 0;
#X connect 11 0 10 0;
#X connect 12 0 1 0;
#X connect 13 0 1 1;
#X connect 14 0 3 0;
#X connect 15 0 4 0;
#X connect 16 0 4 1;
#X connect 17 0 3 1;
#X connect 18 0 4 2;
#X connect 20 0 19 0;
#X connect 21 0 3 2;
